<?xml version="1.0" encoding="utf-8"?>
<!-- Generator: Adobe Illustrator 16.0.0, SVG Export Plug-In . SVG Version: 6.00 Build 0)  -->
<!DOCTYPE svg PUBLIC "-//W3C//DTD SVG 1.1//EN" "http://www.w3.org/Graphics/SVG/1.1/DTD/svg11.dtd">
<svg version="1.1"
	 id="svg279" xmlns:inkscape="http://www.inkscape.org/namespaces/inkscape" xmlns:sodipodi="http://sodipodi.sourceforge.net/DTD/sodipodi-0.dtd" xmlns:svg="http://www.w3.org/2000/svg" inkscape:version="1.2.1 (9c6d41e410, 2022-07-14)" sodipodi:docname="cod.svg"
	 xmlns="http://www.w3.org/2000/svg" xmlns:xlink="http://www.w3.org/1999/xlink" x="0px" y="0px" width="90.666px"
	 height="93.334px" viewBox="0 0 90.666 93.334" enable-background="new 0 0 90.666 93.334" xml:space="preserve">
<sodipodi:namedview  pagecolor="#ffffff" bordercolor="#000000" inkscape:zoom="9.0856494" inkscape:cx="45.346236" id="namedview373" borderopacity="0.25" inkscape:cy="46.667" showgrid="false" inkscape:window-y="-10" inkscape:current-layer="svg279" inkscape:window-height="1046" inkscape:window-x="-10" inkscape:window-maximized="1" inkscape:deskcolor="#d1d1d1" inkscape:pagecheckerboard="0" inkscape:showpageshadow="2" inkscape:pageopacity="0.0" inkscape:window-width="2048">
	</sodipodi:namedview>
<g>
	<path fill="#484848" d="M11.167,23.742c1.476,0,2.952,0,4.525,0c0,6.057,0,12.022,0,18.074c-1.031,0-2.094,0-3.279,0
		c-0.168-2.458-0.345-4.926-0.502-7.396c-0.183-2.871-0.342-5.743-0.528-8.614c-0.02-0.301-0.141-0.597-0.216-0.895
		C11.167,24.52,11.167,24.132,11.167,23.742z"/>
	<path fill="#484848" d="M59.252,77.662c0-1.112,0-2.225,0-3.395c6.173-0.432,12.189-0.854,18.206-1.273c0,1.557,0,3.113,0,4.668
		C71.391,77.662,65.322,77.662,59.252,77.662z"/>
	<path fill="#EE2F31" d="M44.072,55.603c-4.313-3.727-8.538-7.376-12.781-11.042c1.771,0.502,3.494,1.013,5.23,1.471
		c0.518,0.136,1.075,0.148,1.615,0.17c1.642,0.063,3.109-0.298,4.002-1.844c1.015-1.756,1.078-3.545,0.034-5.309
		c-1.035-1.746-2.674-2.789-4.449-3.635c-0.938-0.447-1.919-0.809-3.021-1.267c6.334-7.57,12.606-15.066,18.957-22.656
		c5.353,4.499,10.607,8.916,15.979,13.43C61.104,35.163,52.63,45.333,44.072,55.603z M54.875,33.311c0-3.55-2.812-6.359-6.362-6.358
		c-3.548,0-6.358,2.813-6.358,6.363c0,3.549,2.815,6.361,6.362,6.358C52.07,39.67,54.876,36.863,54.875,33.311z"/>
	<path fill="#62BF36" d="M75.674,72.161c-1.821,0.108-3.402,0.219-4.986,0.294c-3.262,0.156-6.523,0.313-9.787,0.413
		c-0.356,0.012-0.833-0.25-1.068-0.536c-0.875-1.074-1.833-1.775-3.337-1.754c-4.59,0.064-9.179,0.068-13.768-0.013
		c-0.997-0.017-2.167-0.229-2.944-0.787c-2.675-1.923-5.257-3.982-7.782-6.1c-1.305-1.093-2.383-2.454-3.626-3.628
		c-0.949-0.896-0.554-1.869-0.267-2.807c0.265-0.869,0.897-1.435,1.868-1.521c1.325-0.119,2.532,0.17,3.652,0.906
		c2.856,1.881,5.715,3.759,8.609,5.58c0.521,0.33,1.212,0.539,1.828,0.548c3.539,0.051,7.078,0.032,10.618,0.017
		c0.494-0.003,1.227,0.236,1.251-0.614c0.025-0.856-0.696-0.655-1.202-0.658c-2.218-0.012-4.435,0.002-6.65-0.008
		c-1.385-0.006-2.112-0.52-2.397-1.882c-0.164-0.782-0.243-1.648-0.079-2.419c0.218-1.032,0.988-1.651,2.116-1.636
		c5.561,0.07,11.128,0.001,16.679,0.282c3.11,0.156,5.414,1.948,6.699,4.881c1.341,3.057,2.712,6.101,4.019,9.172
		C75.405,70.569,75.479,71.338,75.674,72.161z"/>
	<path fill="#61C1FF" d="M17.695,38.81c0-4.59,0-9.047,0-13.304c4.06-1.2,7.852-2.665,11.779-3.382
		c3.782-0.691,7.521,0.231,11.046,2.216c-0.286,0.367-0.453,0.611-0.649,0.83c-1.506,1.676-3.037,3.331-4.522,5.025
		c-0.783,0.893-1.498,1.671-2.916,1.386c-0.492-0.098-1.48,0.425-1.633,0.873c-0.328,0.964,0.109,1.941,1.047,2.476
		c2.02,1.152,4.087,2.221,6.114,3.362c0.842,0.475,1.675,0.987,2.431,1.586c1.353,1.07,1.13,3.148-0.373,3.998
		c-1.347,0.762-2.771,0.761-4.159,0.249c-3.266-1.208-6.538-2.411-9.729-3.796c-1.02-0.442-1.84-1.403-2.663-2.216
		c-0.476-0.471-0.887-0.607-1.522-0.422C20.539,38.097,19.113,38.44,17.695,38.81z"/>
</g>
</svg>
