<?xml version="1.0" encoding="utf-8"?>
<!-- Generator: Adobe Illustrator 16.0.0, SVG Export Plug-In . SVG Version: 6.00 Build 0)  -->
<!DOCTYPE svg PUBLIC "-//W3C//DTD SVG 1.1//EN" "http://www.w3.org/Graphics/SVG/1.1/DTD/svg11.dtd">
<svg version="1.1"
	 id="svg279" xmlns:inkscape="http://www.inkscape.org/namespaces/inkscape" xmlns:sodipodi="http://sodipodi.sourceforge.net/DTD/sodipodi-0.dtd" xmlns:svg="http://www.w3.org/2000/svg" sodipodi:docname="logosmartcash.svg" inkscape:version="1.2.1 (9c6d41e410, 2022-07-14)"
	 xmlns="http://www.w3.org/2000/svg" xmlns:xlink="http://www.w3.org/1999/xlink" x="0px" y="0px" width="90.666px"
	 height="93.334px" viewBox="0 0 90.666 93.334" enable-background="new 0 0 90.666 93.334" xml:space="preserve">
<g>
	<path id="path13" fill="#F58220" d="M49.275,8.148C36.034,16.954,40.609,23.72,49.2,34.985
		c10.529,13.826,11.668,25.495-7.913,30.855c1.718-1.198,3.127-2.357,4.267-3.494c-1.113-0.009-2.234-0.091-3.369-0.26
		c-13.314-1.988-22.557-14.812-20.645-28.639c1.406-10.151,8.444-18.024,17.354-20.703C41.345,10.911,44.756,9.365,49.275,8.148
		 M49.414,54.568c0.09-4.676-3.402-9.59-8.172-15.921c-5.565-7.403-8.461-14.12-6.948-19.569c-3.869,3.06-6.625,7.636-7.368,13.023
		c-1.513,10.906,5.78,21.022,16.284,22.589C45.332,55.007,47.419,54.951,49.414,54.568"/>
	<path id="path15" fill="#00ABBD" d="M49.122,12.012c-0.521-0.079-1.041-0.138-1.559-0.18c-1.14,1.077-2.014,2.131-2.655,3.182
		c1.237-0.07,2.501-0.014,3.774,0.175C59.185,16.758,66.479,26.875,64.97,37.78c-0.653,4.721-2.853,8.813-5.982,11.813
		c0.687,3.914-0.154,7.411-2.953,10.338c7.151-3.504,12.525-10.547,13.735-19.283C71.684,26.823,62.438,13.999,49.122,12.012"/>
	<path id="path17" fill="#00ABBD" d="M14.78,77.447c0,0-1.964-0.296-3.034-0.296c-1.031,0-1.836,0.37-1.836,1.428
		c0,0.813,0.391,1.129,2.09,1.428c2.28,0.387,3.122,0.886,3.122,2.665c0,2.168-1.358,2.892-3.39,2.892
		c-1.144,0-3.089-0.354-3.089-0.354l0.072-1.167c0,0,1.981,0.297,2.889,0.297c1.428,0,2.159-0.351,2.159-1.609
		c0-0.944-0.411-1.168-2.159-1.486c-2.014-0.368-3.052-0.853-3.052-2.609c0-2,1.573-2.704,3.125-2.704
		c1.336,0,3.14,0.352,3.14,0.352L14.78,77.447z"/>
	<path id="path19" fill="#00ABBD" d="M17.297,85.378v-9.263h1.336v0.629c0,0,1.359-0.814,2.447-0.814
		c1.14,0,1.727,0.353,2.229,0.909c0,0,1.926-0.909,3.158-0.909c2.354,0,2.979,1.389,2.979,4.632v4.818h-1.337v-4.766
		c0-2.35-0.235-3.426-1.839-3.426c-1.107,0-2.444,0.724-2.444,0.724c0.161,0.426,0.27,1.427,0.27,2.647v4.818h-1.322v-4.777
		c0-2.375-0.411-3.411-1.89-3.411c-1.089,0-2.25,0.703-2.25,0.703v7.485H17.297z"/>
	<path id="path21" fill="#00ABBD" d="M37.884,83.507c0.164,0.57,0.521,0.779,1.072,0.871l-0.073,1.186
		c-1.017,0-1.604-0.242-2.084-0.724c0,0-1.446,0.724-3.052,0.724c-1.464,0-2.535-1.132-2.535-2.834c0-1.743,1.001-2.596,2.731-2.762
		l2.622-0.26V78.93c0-1.186-0.535-1.72-1.515-1.72c-1.446,0-3.339,0.259-3.339,0.259l-0.052-1.187c0,0,2.068-0.353,3.441-0.353
		c1.858,0,2.783,0.928,2.783,3.021V83.507z M34.107,81.005c-1.074,0.092-1.536,0.763-1.536,1.685c0,0.965,0.551,1.688,1.337,1.688
		c1.354,0,2.658-0.558,2.658-0.558v-3.021L34.107,81.005z"/>
	<path id="path23" fill="#00ABBD" d="M40.347,76.115h1.339v1.222c0,0,1.337-1.056,2.958-1.407v1.445
		c-1.584,0.334-2.958,1.241-2.958,1.241v6.76h-1.339V76.115z"/>
	<path id="path25" fill="#00ABBD" d="M47.521,77.354v4.357c0,1.925,0.211,2.611,1.281,2.611c0.5,0,1.45-0.094,1.45-0.094
		l0.069,1.169c0,0-1.034,0.184-1.661,0.184c-1.764,0-2.478-0.906-2.478-3.391v-4.835h-1.23v-1.221h1.23v-2.855h1.338v2.855h2.676
		v1.221h-2.676V77.354z"/>
	<path id="path27" fill="#00ABBD" d="M57.063,76.132l-0.032,0.594c0,0-1.249-0.188-1.927-0.188c-2.284,0-2.998,1.26-2.998,4.003
		c0,3.001,0.463,4.41,2.998,4.41c0.678,0,1.962-0.167,1.962-0.167l0.037,0.594c0,0-1.321,0.166-1.999,0.166
		c-2.979,0-3.659-1.467-3.659-5.003c0-3.241,1-4.594,3.659-4.594c0.678,0,1.962,0.185,1.962,0.185"/>
	<path id="path29" fill="#00ABBD" d="M64.741,84.153c0.266,0.521,0.729,0.721,1.337,0.78l-0.036,0.593
		c-0.767,0-1.34-0.224-1.767-0.777c0,0-1.643,0.796-3.479,0.796c-1.394,0-2.357-1.095-2.357-2.706c0-1.574,0.842-2.521,2.553-2.705
		l3.122-0.333V78.84c0-1.612-0.678-2.261-1.979-2.261s-3.193,0.297-3.193,0.297l-0.055-0.612c0,0,1.819-0.314,3.248-0.314
		c1.804,0,2.605,0.985,2.605,2.892V84.153L64.741,84.153z M61.063,80.709c-1.395,0.126-1.963,0.982-1.963,2.13
		c0,1.167,0.713,2.113,1.711,2.113c1.767,0,3.303-0.744,3.303-0.744V80.41L61.063,80.709z"/>
	<path id="path31" fill="#00ABBD" d="M72.874,76.816c0,0-1.731-0.277-2.945-0.277c-1.156,0-2.299,0.411-2.299,1.854
		c0,1.059,0.447,1.521,2.443,1.835c2.338,0.373,3.158,0.777,3.158,2.482c0,2.185-1.286,2.835-3.303,2.835
		c-1.015,0-2.854-0.278-2.854-0.278l0.072-0.612c0,0,1.84,0.298,2.746,0.298c1.68,0,2.678-0.407,2.678-2.186
		c0-1.295-0.553-1.575-2.678-1.93c-2.049-0.331-2.925-0.792-2.925-2.404c0-1.911,1.5-2.483,2.96-2.483
		c1.375,0,2.982,0.26,2.982,0.26L72.874,76.816z"/>
	<path id="path33" fill="#00ABBD" d="M75.515,85.378V71.855h0.627v4.815c0,0,1.568-0.724,2.928-0.724
		c2.422,0,2.925,1.204,2.925,4.612v4.818h-0.627v-4.777c0-2.968-0.32-4.062-2.301-4.062c-1.41,0-2.929,0.743-2.929,0.743v8.096
		H75.515L75.515,85.378z"/>
</g>
</svg>
