<?xml version="1.0" encoding="utf-8"?>
<!-- Generator: Adobe Illustrator 16.0.0, SVG Export Plug-In . SVG Version: 6.00 Build 0)  -->
<!DOCTYPE svg PUBLIC "-//W3C//DTD SVG 1.1//EN" "http://www.w3.org/Graphics/SVG/1.1/DTD/svg11.dtd">
<svg version="1.1"
	 id="svg279" xmlns:inkscape="http://www.inkscape.org/namespaces/inkscape" xmlns:sodipodi="http://sodipodi.sourceforge.net/DTD/sodipodi-0.dtd" xmlns:svg="http://www.w3.org/2000/svg" sodipodi:docname="logosmartcash.svg" inkscape:version="1.2.1 (9c6d41e410, 2022-07-14)"
	 xmlns="http://www.w3.org/2000/svg" xmlns:xlink="http://www.w3.org/1999/xlink" x="0px" y="0px" width="90.666px"
	 height="93.334px" viewBox="0 0 90.666 93.334" enable-background="new 0 0 90.666 93.334" xml:space="preserve">
<rect x="34.044" y="23.717" fill="#FF5F00" width="22.896" height="41.146"/>
<path fill="#EB001B" d="M35.498,44.29c0-8.348,3.908-15.781,9.994-20.573c-4.451-3.504-10.067-5.595-16.171-5.595
	c-14.45,0-26.166,11.716-26.166,26.168c0,14.451,11.715,26.167,26.166,26.167c6.104,0,11.72-2.091,16.171-5.595
	C39.406,60.07,35.498,52.637,35.498,44.29"/>
<path fill="#F79E1B" d="M87.829,44.29c0,14.451-11.715,26.167-26.166,26.167c-6.104,0-11.721-2.091-16.171-5.595
	c6.086-4.792,9.994-12.226,9.994-20.572c0-8.348-3.908-15.781-9.994-20.573c4.45-3.504,10.067-5.595,16.171-5.595
	C76.114,18.122,87.829,29.838,87.829,44.29"/>
<path fill="#F79E1B" d="M85.332,60.504v-0.843h0.341v-0.17h-0.865v0.17h0.339v0.843H85.332z M87.012,60.504v-1.015h-0.265
	l-0.305,0.698l-0.305-0.698h-0.266v1.015h0.187v-0.767l0.286,0.662h0.194l0.287-0.663v0.768H87.012z"/>
</svg>
