<?xml version="1.0" encoding="UTF-8" standalone="no"?>
<svg
   viewBox="0 0 89.999999 92.999997"
   version="1.1"
   id="svg90"
   sodipodi:docname="spennv.svg"
   width="90"
   height="93"
   inkscape:version="1.2.1 (9c6d41e410, 2022-07-14)"
   xmlns:inkscape="http://www.inkscape.org/namespaces/inkscape"
   xmlns:sodipodi="http://sodipodi.sourceforge.net/DTD/sodipodi-0.dtd"
   xmlns:xlink="http://www.w3.org/1999/xlink"
   xmlns="http://www.w3.org/2000/svg"
   xmlns:svg="http://www.w3.org/2000/svg">
  <sodipodi:namedview
     id="namedview92"
     pagecolor="#ffffff"
     bordercolor="#000000"
     borderopacity="0.25"
     inkscape:showpageshadow="2"
     inkscape:pageopacity="0.0"
     inkscape:pagecheckerboard="0"
     inkscape:deskcolor="#d1d1d1"
     showgrid="false"
     inkscape:zoom="1.5004828"
     inkscape:cx="91.637169"
     inkscape:cy="242.58858"
     inkscape:window-width="2048"
     inkscape:window-height="1046"
     inkscape:window-x="-10"
     inkscape:window-y="-10"
     inkscape:window-maximized="1"
     inkscape:current-layer="svg90" />
  <defs
     id="defs60">
    <style
       id="style48">.cls-1{fill:#42414d;}.cls-2{fill:url(#linear-gradient);}.cls-3{fill:url(#linear-gradient-2);}.cls-4{fill:url(#linear-gradient-3);}.cls-5{fill:url(#linear-gradient-4);}.cls-6{fill:url(#linear-gradient-5);}.cls-7{fill:url(#linear-gradient-6);}.cls-8{fill:#fff;stroke:#e8e8e8;stroke-miterlimit:10;stroke-width:0.64px;}</style>
    <linearGradient
       id="linear-gradient"
       x1="444.88"
       y1="505.35999"
       x2="444.88"
       y2="42.869999"
       gradientUnits="userSpaceOnUse">
      <stop
         offset="0"
         stop-color="#f9f294"
         id="stop50" />
      <stop
         offset="1"
         stop-color="#85e6b5"
         id="stop52" />
    </linearGradient>
    <linearGradient
       id="linear-gradient-2"
       x1="444.88"
       y1="411.20999"
       x2="444.88"
       y2="377.67001"
       xlink:href="#linear-gradient" />
    <linearGradient
       id="linear-gradient-3"
       x1="444.88"
       y1="496.35001"
       x2="444.88"
       y2="51.880001"
       xlink:href="#linear-gradient" />
    <linearGradient
       id="linear-gradient-4"
       x1="444.88"
       y1="170.53"
       x2="444.88"
       y2="136.98"
       xlink:href="#linear-gradient" />
    <linearGradient
       id="linear-gradient-5"
       x1="444.88"
       y1="554"
       x2="444.88"
       y2="0.31999999"
       xlink:href="#linear-gradient" />
    <linearGradient
       id="linear-gradient-6"
       x1="444.88"
       y1="544.98999"
       x2="444.88"
       y2="9.3299999"
       xlink:href="#linear-gradient" />
    <linearGradient
       inkscape:collect="always"
       xlink:href="#linear-gradient"
       id="linearGradient281"
       gradientUnits="userSpaceOnUse"
       x1="444.88"
       y1="505.35999"
       x2="444.88"
       y2="42.869999" />
  </defs>
  <g
     id="Layer_2"
     data-name="Layer 2"
     transform="matrix(0.0840718,0,0,0.07477146,7.6866193,15.514488)">
    <g
       id="Layer_1-2"
       data-name="Layer 1">
      <path
         class="cls-1"
         d="m 94,723.94 c 0,-14.94 -8,-23 -23,-23 H 34.92 c -14.93,0 -23,8 -23,23 v 14.93 c 0,16.08 6.2,18.61 19.3,21.83 L 74,771.5 c 23.2,6 33.08,10.11 33.08,33.08 v 18.15 c 0,21.83 -11.71,33.55 -33.54,33.55 h -40 C 11.72,856.28 0,844.56 0,822.73 v -13.55 h 11 v 14 c 0,14.94 8,23 23,23 h 39.06 c 14.93,0 23,-8 23,-23 V 805 c 0,-16.08 -6,-18.84 -19.31,-22 L 34,772.42 C 10.8,766.67 0.92,762.31 0.92,739.33 V 724.4 c 0,-21.83 11.72,-33.55 33.54,-33.55 h 37 c 21.83,0 33.55,11.72 33.55,33.55 v 11 H 94 Z"
         id="path62" />
      <path
         class="cls-1"
         d="m 270,690.85 c 21.82,0 33.54,11.72 33.54,33.55 v 31.48 c 0,21.82 -11.72,33.54 -33.54,33.54 h -64.1 v 66.86 h -11 V 690.85 Z m -0.46,88.46 c 14.93,0 23,-8 23,-23 v -32.37 c 0,-14.94 -8,-23 -23,-23 h -63.68 v 78.34 z"
         id="path64" />
      <path
         class="cls-1"
         d="M 486.15,690.85 V 701 h -88.68 v 65.7 h 75.59 v 9.88 h -75.59 v 69.62 h 88.68 v 10.11 H 386.44 V 690.85 Z"
         id="path66" />
      <path
         class="cls-1"
         d="m 684,690.85 v 165.43 h -12.4 l -92.4,-149.8 v 149.8 H 568.41 V 690.85 h 13.32 l 91.44,148.43 V 690.85 Z"
         id="path68" />
      <path
         class="cls-1"
         d="m 891.89,690.85 v 165.43 h -12.4 l -92.36,-149.8 v 149.8 h -10.8 V 690.85 h 13.32 l 91.44,148.43 V 690.85 Z"
         id="path70" />
      <path
         class="cls-2"
         d="m 446.84,179.44 28.16,28.12 12,-12 A 59.6,59.6 0 0 0 441.76,93.86 c -29.79,1.51 -54.54,26 -56.37,55.76 a 59.09,59.09 0 0 0 16.38,44.87 c 0.1,0.11 0.2,0.22 0.29,0.34 l 0.47,0.48 0.14,0.14 45.19,45.2 a 1.8,1.8 0 0 1 0.2,0.19 l 30.1,30.09 0.15,0.16 45.2,45.21 a 109.87,109.87 0 0 1 32.19,82 111,111 0 0 1 -107.19,107 c -1.23,0 -2.46,0.06 -3.68,0.06 a 110.89,110.89 0 0 1 -87.7,-178.68 c 2.7,-3.5 22.17,-23.39 24.38,-25.65 a 4.51,4.51 0 0 1 3.2,-1.35 v 0 a 4.47,4.47 0 0 1 3.18,1.32 l 30.11,30.08 0.06,0.08 v 0 l 46,46 a 4.3,4.3 0 0 1 0.65,0.84 25.78,25.78 0 1 1 -21.79,-9.24 L 414.8,340.64 402.72,352.71 A 59.6,59.6 0 0 0 448,454.37 c 30.06,-1.52 54.84,-26.26 56.41,-56.32 a 59.84,59.84 0 0 0 -17.25,-45.2 L 482,347.73 a 4.49,4.49 0 0 1 -0.41,-0.46 l -39.54,-39.54 c -0.13,-0.11 -0.26,-0.22 -0.38,-0.34 l -75.45,-75.46 a 109.94,109.94 0 0 1 -32.19,-82 110.89,110.89 0 0 1 221.71,3.79 109.84,109.84 0 0 1 -23.3,68 c -2.81,3.61 -22,23.19 -24.19,25.41 a 4.55,4.55 0 0 1 -3.2,1.35 v 0 a 4.51,4.51 0 0 1 -3.18,-1.32 l -30.1,-30.09 v 0 L 426.65,172 l -0.14,-0.18 a 25.77,25.77 0 1 1 20.33,7.63 z"
         id="path72"
         style="fill:url(#linearGradient281)" />
      <path
         class="cls-3"
         d="m 461.66,394.44 a 16.78,16.78 0 1 0 -16.78,16.77 16.79,16.79 0 0 0 16.78,-16.77 z"
         id="path74"
         style="fill:url(#linear-gradient-2)" />
      <path
         class="cls-4"
         d="M 481.34,213.93 505,237.62 c 8.22,-8.41 18.67,-19.25 20.33,-21.38 A 101.89,101.89 0 0 0 441.55,51.93 101.87,101.87 0 0 0 372.63,225.57 l 75.08,75.09 a 4,4 0 0 1 0.38,0.34 l 40.34,40.34 a 4.4,4.4 0 0 1 0.4,0.46 l 4.69,4.69 a 68.82,68.82 0 0 1 19.86,52 c -1.8,34.61 -30.33,63.09 -64.95,64.85 a 68.88,68.88 0 0 1 -52.07,-20 68.6,68.6 0 0 1 0,-97 l 12.08,-12.08 -23.68,-23.68 c -8.15,8.37 -18.93,19.56 -20.5,21.6 a 101.88,101.88 0 0 0 84,164.11 A 102,102 0 0 0 546.7,398 101,101 0 0 0 517.14,322.7 l -45.35,-45.4 -0.16,-0.16 -29.74,-29.74 -0.2,-0.19 -45.46,-45.47 -0.16,-0.17 -0.77,-0.76 a 4.23,4.23 0 0 1 -0.44,-0.51 68.58,68.58 0 0 1 46.44,-115.44 68.88,68.88 0 0 1 52.08,20 68.58,68.58 0 0 1 0,97 z"
         id="path76"
         style="fill:url(#linear-gradient-3)" />
      <path
         class="cls-5"
         d="m 461.66,153.76 a 16.78,16.78 0 1 0 -16.78,16.77 16.8,16.8 0 0 0 16.78,-16.77 z"
         id="path78"
         style="fill:url(#linear-gradient-4)" />
      <path
         class="cls-6"
         d="m 598.32,153.76 v 246.8 C 598.32,485.17 529.49,554 444.88,554 360.27,554 291.45,485.17 291.45,400.56 v -246.8 c 0,-84.61 68.83,-153.44 153.43,-153.44 84.6,0 153.44,68.83 153.44,153.44 z"
         id="path80"
         style="fill:url(#linear-gradient-5)" />
      <path
         class="cls-7"
         d="M 589.31,153.76 C 589.31,74.12 524.52,9.33 444.88,9.33 365.24,9.33 300.45,74.12 300.45,153.76 v 246.8 c 0,79.64 64.79,144.44 144.43,144.44 79.64,0 144.43,-64.8 144.43,-144.44 z"
         id="path82"
         style="fill:url(#linear-gradient-6)" />
      <path
         class="cls-8"
         d="m 470.66,153.76 a 25.78,25.78 0 1 0 -44.15,18.05 l 0.14,0.18 45.13,45.12 v 0 l 30.1,30.09 a 4.51,4.51 0 0 0 3.18,1.32 v 0 a 4.55,4.55 0 0 0 3.2,-1.35 c 2.18,-2.22 21.38,-21.8 24.19,-25.41 a 110.89,110.89 0 0 0 -91.19,-178.83 111.06,111.06 0 0 0 -107.2,107 109.94,109.94 0 0 0 32.19,82 l 75.45,75.46 c 0.12,0.12 0.25,0.23 0.38,0.34 l 39.54,39.54 a 4.49,4.49 0 0 0 0.41,0.46 l 5.11,5.12 a 59.84,59.84 0 0 1 17.25,45.2 c -1.57,30.06 -26.35,54.8 -56.41,56.32 A 59.82,59.82 0 0 1 402.73,437 a 59.61,59.61 0 0 1 0,-84.28 l 12.08,-12.07 28.12,28.12 a 25.77,25.77 0 1 0 21.79,9.23 4.3,4.3 0 0 0 -0.65,-0.84 l -46,-46 v 0 l -0.06,-0.08 -30.1,-30.08 a 4.47,4.47 0 0 0 -3.18,-1.32 v 0 a 4.51,4.51 0 0 0 -3.2,1.35 c -2.21,2.26 -21.68,22.15 -24.38,25.65 a 110.89,110.89 0 0 0 87.7,178.68 c 1.22,0 2.45,0 3.68,-0.06 a 111,111 0 0 0 107.19,-107 109.87,109.87 0 0 0 -32.19,-82 l -45.2,-45.21 -0.15,-0.16 -30.1,-30.09 a 1.8,1.8 0 0 0 -0.2,-0.19 l -45.19,-45.2 -0.14,-0.14 -0.47,-0.48 c -0.09,-0.12 -0.19,-0.23 -0.29,-0.34 a 59.09,59.09 0 0 1 -16.38,-44.87 c 1.83,-29.75 26.58,-54.25 56.37,-55.76 A 59.6,59.6 0 0 1 487,195.52 l -12,12 -28.13,-28.12 a 25.8,25.8 0 0 0 23.79,-25.64 z m -25.78,257.45 a 16.77,16.77 0 1 1 16.78,-16.77 16.79,16.79 0 0 1 -16.78,16.77 z m 48.5,-209.33 a 68.58,68.58 0 0 0 0,-97 68.6,68.6 0 0 0 -117,44.2 68,68 0 0 0 18.46,51.23 4.23,4.23 0 0 0 0.44,0.51 l 0.77,0.76 0.16,0.17 45.46,45.47 0.2,0.19 29.74,29.74 0.16,0.16 45.35,45.36 A 101,101 0 0 1 546.7,398 101.87,101.87 0 0 1 343,394.47 100.85,100.85 0 0 1 364.25,332.19 c 1.57,-2 12.35,-13.23 20.5,-21.6 l 23.68,23.68 -12.08,12.08 a 68.6,68.6 0 0 0 0,97 68.88,68.88 0 0 0 52.07,20 c 34.62,-1.76 63.15,-30.24 64.95,-64.85 a 68.82,68.82 0 0 0 -19.86,-52 l -4.69,-4.69 a 4.4,4.4 0 0 0 -0.4,-0.46 L 448.09,301 a 4,4 0 0 0 -0.38,-0.34 l -75.08,-75.09 a 101.87,101.87 0 1 1 152.73,-9.33 c -1.66,2.13 -12.11,13 -20.33,21.38 l -23.69,-23.69 z m -48.5,-31.35 a 16.78,16.78 0 1 1 16.78,-16.77 16.79,16.79 0 0 1 -16.78,16.77 z"
         id="path84" />
      <path
         class="cls-8"
         d="m 444.88,0.32 c -84.6,0 -153.43,68.83 -153.43,153.44 v 246.8 c 0,84.61 68.83,153.44 153.43,153.44 84.6,0 153.44,-68.83 153.44,-153.44 V 153.76 C 598.32,69.15 529.49,0.32 444.88,0.32 Z M 589.31,400.56 C 589.31,480.2 524.52,545 444.88,545 365.24,545 300.45,480.2 300.45,400.56 v -246.8 c 0,-79.64 64.79,-144.43 144.43,-144.43 79.64,0 144.43,64.79 144.43,144.43 z"
         id="path86" />
    </g>
  </g>
</svg>
