<?xml version="1.0" encoding="utf-8"?>
<!-- Generator: Adobe Illustrator 16.0.0, SVG Export Plug-In . SVG Version: 6.00 Build 0)  -->
<!DOCTYPE svg PUBLIC "-//W3C//DTD SVG 1.1//EN" "http://www.w3.org/Graphics/SVG/1.1/DTD/svg11.dtd">
<svg version="1.1"
	 id="svg279" xmlns:inkscape="http://www.inkscape.org/namespaces/inkscape" xmlns:sodipodi="http://sodipodi.sourceforge.net/DTD/sodipodi-0.dtd" xmlns:svg="http://www.w3.org/2000/svg" sodipodi:docname="logosmartcash.svg" inkscape:version="1.2.1 (9c6d41e410, 2022-07-14)"
	 xmlns="http://www.w3.org/2000/svg" xmlns:xlink="http://www.w3.org/1999/xlink" x="0px" y="0px" width="90.666px"
	 height="93.334px" viewBox="0 0 90.666 93.334" enable-background="new 0 0 90.666 93.334" xml:space="preserve">
<path fill="#1434CB" d="M35.337,33.442L23.871,60.8h-7.479l-5.643-21.833c-0.343-1.344-0.64-1.836-1.682-2.403
	c-1.702-0.924-4.51-1.789-6.981-2.327l0.168-0.794h12.042c1.535,0,2.916,1.021,3.263,2.788l2.981,15.832l7.365-18.622h7.436v0.002
	H35.337z M64.649,51.867c0.029-7.221-9.986-7.618-9.917-10.842c0.022-0.982,0.957-2.026,3.004-2.292
	c1.014-0.133,3.809-0.234,6.976,1.225l1.244-5.802c-1.704-0.619-3.894-1.212-6.62-1.212c-6.995,0-11.918,3.718-11.959,9.042
	c-0.044,3.939,3.513,6.137,6.196,7.443c2.757,1.343,3.684,2.204,3.672,3.402c-0.02,1.836-2.2,2.646-4.238,2.679
	c-3.557,0.055-5.619-0.964-7.266-1.728l-1.283,5.993c1.653,0.758,4.707,1.419,7.871,1.452
	C59.763,61.227,64.627,57.557,64.649,51.867 M83.121,60.8h6.545l-5.714-27.357h-6.041c-1.358,0-2.504,0.789-3.011,2.006L64.28,60.8
	h7.433l1.475-4.086h9.079L83.121,60.8z M75.225,51.106l3.725-10.272l2.146,10.272H75.225z M45.45,33.442L39.598,60.8h-7.076
	l5.854-27.357H45.45L45.45,33.442z"/>
</svg>
