<?xml version="1.0" encoding="utf-8"?>
<!-- Generator: Adobe Illustrator 16.0.0, SVG Export Plug-In . SVG Version: 6.00 Build 0)  -->
<!DOCTYPE svg PUBLIC "-//W3C//DTD SVG 1.1//EN" "http://www.w3.org/Graphics/SVG/1.1/DTD/svg11.dtd">
<svg version="1.1"
	 id="svg279" xmlns:inkscape="http://www.inkscape.org/namespaces/inkscape" xmlns:sodipodi="http://sodipodi.sourceforge.net/DTD/sodipodi-0.dtd" xmlns:svg="http://www.w3.org/2000/svg" inkscape:version="1.2.1 (9c6d41e410, 2022-07-14)" sodipodi:docname="cod.svg"
	 xmlns="http://www.w3.org/2000/svg" xmlns:xlink="http://www.w3.org/1999/xlink" x="0px" y="0px" width="90.666px"
	 height="93.334px" viewBox="0 0 90.666 93.334" enable-background="new 0 0 90.666 93.334" xml:space="preserve">
<sodipodi:namedview  pagecolor="#ffffff" bordercolor="#000000" inkscape:zoom="9.0856494" inkscape:cx="45.346236" id="namedview373" borderopacity="0.25" inkscape:cy="46.667" showgrid="false" inkscape:window-y="-10" inkscape:current-layer="svg279" inkscape:window-height="1046" inkscape:window-x="-10" inkscape:window-maximized="1" inkscape:deskcolor="#d1d1d1" inkscape:pagecheckerboard="0" inkscape:showpageshadow="2" inkscape:pageopacity="0.0" inkscape:window-width="2048">
	</sodipodi:namedview>
<g>
	<path fill="#00A34D" d="M20.356,31.175h-4.558c-0.355,0-0.617,0.096-0.781,0.286c-0.167,0.19-0.298,0.379-0.393,0.569l-3.916,9.291
		L6.793,32.03c-0.095-0.19-0.226-0.378-0.391-0.569c-0.166-0.19-0.427-0.286-0.783-0.286H1.063c-0.238,0-0.439,0.084-0.606,0.249
		c-0.166,0.167-0.248,0.369-0.248,0.605c0,0.096,0.012,0.179,0.035,0.25l7.191,16.516c0.117,0.214,0.254,0.416,0.409,0.604
		c0.154,0.188,0.409,0.285,0.765,0.285h4.201c0.356,0,0.61-0.097,0.766-0.285c0.154-0.189,0.291-0.391,0.41-0.604l7.19-16.516
		c0.023-0.071,0.036-0.154,0.036-0.25c0-0.236-0.084-0.438-0.249-0.605C20.794,31.26,20.592,31.175,20.356,31.175"/>
	<path fill="#00111B" d="M89.459,26.738c0,2.451-1.988,4.438-4.438,4.438c-2.453,0-4.439-1.987-4.439-4.438
		c0-2.452,1.986-4.439,4.439-4.439C87.471,22.298,89.459,24.286,89.459,26.738"/>
	<path fill="#00A34D" d="M80.083,35.073c-0.332-0.865-0.847-1.613-1.547-2.243c-0.7-0.628-1.585-1.121-2.65-1.477
		c-1.07-0.356-2.328-0.534-3.775-0.534c-1.211,0-2.33,0.167-3.364,0.499c-1.031,0.333-1.92,0.747-2.668,1.245
		c-0.747,0.498-1.336,1.044-1.763,1.637c-0.427,0.594-0.665,1.163-0.711,1.709c-0.024,0.237,0.04,0.426,0.195,0.57
		c0.155,0.141,0.35,0.213,0.588,0.213h4.521c0.26,0,0.485-0.023,0.677-0.072c0.189-0.047,0.393-0.167,0.604-0.355
		c0.143-0.118,0.364-0.254,0.658-0.409c0.298-0.155,0.716-0.231,1.263-0.231c0.761,0,1.296,0.184,1.604,0.551
		c0.308,0.369,0.463,0.837,0.463,1.407l-4.164,0.712c-2.705,0.475-4.656,1.222-5.856,2.242c-1.197,1.021-1.796,2.314-1.796,3.88
		c0,0.807,0.142,1.555,0.426,2.243c0.284,0.688,0.694,1.282,1.227,1.778c0.534,0.5,1.2,0.892,1.995,1.176
		c0.794,0.282,1.703,0.427,2.722,0.427c1.377,0,2.488-0.209,3.332-0.624c0.839-0.416,1.547-0.979,2.115-1.69v0.996
		c0,0.261,0.094,0.488,0.286,0.678c0.189,0.188,0.415,0.284,0.677,0.284h4.483c0.262,0,0.486-0.096,0.678-0.284
		c0.19-0.189,0.284-0.417,0.284-0.678V37.938C80.579,36.895,80.415,35.939,80.083,35.073 M73.58,45.463
		c-0.79,0.753-1.77,1.084-2.828,1.174c-1.259,0.108-2.455-0.112-3.489-0.877c-0.317-0.233-0.593-0.543-0.814-0.867
		c-0.205-0.299-0.443-0.435-0.771-0.458h-1.39c-0.37,0-0.668-0.299-0.668-0.669c0-0.369,0.298-0.669,0.668-0.669h1.416
		c0.275-0.004,0.509-0.084,0.652-0.333c0.557-0.945,1.427-1.448,2.451-1.702c1.497-0.369,2.939-0.228,4.263,0.614
		c0.658,0.418,1.143,0.985,1.265,1.786C74.46,44.267,74.148,44.921,73.58,45.463"/>
	<path fill="#00A34D" d="M40.217,31.461c-0.191-0.19-0.415-0.286-0.677-0.286h-4.485c-0.262,0-0.487,0.096-0.677,0.286
		c-0.19,0.19-0.285,0.416-0.285,0.677v9.005c0,1.02-0.221,1.839-0.658,2.456c-0.264,0.371-0.641,0.628-1.123,0.775v0.57h-0.003
		c0,0.229,0,0.459,0,0.689c0,0.073,0,0.128,0.094,0.159c0.043,0.015,0.086,0.101,0.088,0.157c0.009,0.229,0.007,0.461,0.001,0.691
		c-0.001,0.049-0.035,0.129-0.069,0.141c-0.119,0.039-0.122,0.124-0.112,0.219c0.012,0.122-0.035,0.167-0.161,0.166
		c-0.635-0.007-1.27-0.008-1.905,0c-0.145,0.001-0.183-0.055-0.172-0.183c0.009-0.086,0.012-0.166-0.105-0.196
		c-0.034-0.009-0.074-0.078-0.075-0.122c-0.007-0.249-0.007-0.499,0-0.749c0.001-0.042,0.042-0.11,0.078-0.119
		c0.095-0.028,0.103-0.086,0.103-0.169c-0.001-0.229-0.001-0.458-0.002-0.686v-0.098c0-0.132-0.001-0.264-0.001-0.397
		c0.001,0,0.001,0,0.001,0v-0.085h0.007c-0.473-0.148-0.846-0.402-1.11-0.766c-0.451-0.618-0.677-1.436-0.677-2.456v-9.006
		c0-0.261-0.095-0.487-0.285-0.676c-0.191-0.189-0.416-0.285-0.677-0.285h-4.484c-0.262,0-0.487,0.096-0.677,0.285
		c-0.191,0.191-0.286,0.416-0.286,0.676v9.789c0,2.801,0.683,4.853,2.048,6.158c1.364,1.308,3.197,1.959,5.499,1.959
		c0.735,0,1.371-0.067,1.905-0.197c0.534-0.129,1.003-0.295,1.407-0.498c0.402-0.201,0.742-0.427,1.015-0.676
		c0.271-0.251,0.504-0.505,0.693-0.767v0.817c0,0.262,0.095,0.488,0.287,0.679c0.189,0.188,0.415,0.284,0.676,0.284h4.129
		c0.262,0,0.486-0.096,0.677-0.284c0.19-0.19,0.285-0.417,0.285-0.679V32.138C40.501,31.877,40.407,31.651,40.217,31.461"/>
	<g>
		<path fill="#00A34D" d="M54.136,30.593c1.083,0,2.106,0.169,3.07,0.506s1.806,0.849,2.528,1.535
			c0.723,0.687,1.307,1.548,1.752,2.582c0.444,1.035,0.691,2.264,0.739,3.683c0.025,0.361,0.037,0.849,0.037,1.462
			s-0.012,1.102-0.037,1.462c-0.048,1.42-0.295,2.649-0.739,3.684c-0.445,1.036-1.029,1.896-1.752,2.583s-1.564,1.192-2.528,1.517
			c-0.962,0.325-1.987,0.488-3.07,0.488c-0.794,0-1.462-0.067-2.004-0.2s-0.999-0.3-1.373-0.504s-0.687-0.433-0.938-0.688
			c-0.251-0.251-0.488-0.511-0.704-0.775v0.829c0,0.267-0.096,0.495-0.288,0.688c-0.193,0.192-0.421,0.289-0.687,0.289h-4.37
			c-0.266,0-0.494-0.097-0.687-0.289c-0.192-0.192-0.288-0.421-0.288-0.688V25.067c0-0.264,0.096-0.493,0.288-0.686
			c0.193-0.192,0.421-0.29,0.687-0.29h4.55c0.264,0,0.493,0.097,0.687,0.29c0.191,0.192,0.288,0.421,0.288,0.686v7.692
			c0.168-0.217,0.384-0.452,0.65-0.704c0.263-0.252,0.59-0.487,0.976-0.705c0.385-0.217,0.842-0.397,1.371-0.542
			C52.823,30.665,53.438,30.593,54.136,30.593z M55.761,39.333c-0.072-0.842-0.35-1.576-0.828-2.203
			c-0.483-0.625-1.29-0.938-2.421-0.938c-0.529,0-0.987,0.085-1.37,0.253c-0.387,0.169-0.704,0.391-0.959,0.667
			c-0.252,0.278-0.452,0.583-0.596,0.921c-0.146,0.337-0.241,0.687-0.29,1.047c-0.048,0.361-0.07,0.783-0.07,1.263
			c0,0.483,0.022,0.904,0.07,1.264c0.05,0.362,0.146,0.71,0.29,1.046c0.144,0.338,0.343,0.645,0.596,0.921
			c0.255,0.277,0.572,0.5,0.959,0.668c0.383,0.169,0.841,0.253,1.37,0.253c1.132,0,1.938-0.313,2.421-0.938
			c0.479-0.626,0.756-1.36,0.828-2.204C55.834,40.682,55.834,40.007,55.761,39.333z"/>
	</g>
	<g>
		<path fill="#00111B" d="M41.23,63.183l2.059-6.14c0.038-0.099,0.104-0.195,0.202-0.292c0.098-0.099,0.239-0.148,0.422-0.148h0.607
			c0.122,0,0.228,0.043,0.313,0.128c0.084,0.086,0.128,0.19,0.128,0.313c0,0.05-0.007,0.101-0.018,0.147l-2.813,8.456
			c-0.049,0.147-0.112,0.27-0.193,0.367c-0.08,0.098-0.2,0.148-0.359,0.148h-0.57c-0.16,0-0.278-0.053-0.358-0.156
			c-0.079-0.104-0.151-0.224-0.211-0.358l-2.188-6.103l-2.188,6.103c-0.062,0.135-0.132,0.255-0.211,0.358
			c-0.081,0.104-0.2,0.156-0.359,0.156h-0.57c-0.159,0-0.278-0.051-0.357-0.148c-0.082-0.098-0.145-0.22-0.194-0.367L31.56,57.19
			c-0.012-0.047-0.019-0.098-0.019-0.147c0-0.122,0.044-0.227,0.129-0.313c0.085-0.085,0.19-0.128,0.312-0.128h0.606
			c0.185,0,0.325,0.05,0.422,0.148c0.098,0.099,0.166,0.195,0.204,0.292l2.059,6.14l2.206-6.14c0.037-0.099,0.094-0.195,0.174-0.292
			c0.08-0.099,0.211-0.148,0.396-0.148h0.404c0.184,0,0.316,0.05,0.396,0.148c0.079,0.099,0.138,0.195,0.175,0.292L41.23,63.183z"/>
		<path fill="#00111B" d="M45.419,63.752c0-0.489,0.099-0.918,0.294-1.285c0.197-0.368,0.467-0.683,0.808-0.939
			c0.345-0.258,0.746-0.466,1.204-0.624c0.461-0.159,0.947-0.283,1.463-0.369l2.59-0.422v-0.239c0-0.625-0.203-1.093-0.614-1.404
			c-0.409-0.313-0.922-0.471-1.533-0.471c-0.54,0-0.947,0.1-1.224,0.295c-0.273,0.195-0.511,0.428-0.706,0.699
			c-0.074,0.098-0.154,0.165-0.241,0.202c-0.085,0.034-0.201,0.054-0.35,0.054h-0.549c-0.136,0-0.256-0.048-0.36-0.148
			c-0.104-0.098-0.149-0.213-0.14-0.348c0.025-0.271,0.134-0.545,0.325-0.825c0.188-0.284,0.445-0.535,0.772-0.755
			c0.325-0.221,0.697-0.401,1.121-0.543c0.422-0.142,0.873-0.212,1.351-0.212c0.55,0,1.062,0.082,1.533,0.239
			c0.472,0.16,0.877,0.393,1.214,0.697c0.338,0.308,0.601,0.688,0.79,1.142c0.192,0.453,0.285,0.974,0.285,1.562v5.606
			c0,0.135-0.048,0.251-0.147,0.349c-0.098,0.098-0.214,0.148-0.349,0.148h-0.682c-0.133,0-0.25-0.051-0.347-0.148
			c-0.099-0.098-0.15-0.214-0.15-0.349v-0.752c-0.107,0.233-0.28,0.436-0.511,0.613c-0.235,0.179-0.502,0.33-0.801,0.45
			c-0.3,0.124-0.613,0.216-0.938,0.278c-0.327,0.061-0.629,0.092-0.909,0.092c-0.479,0-0.916-0.069-1.314-0.203
			c-0.397-0.135-0.734-0.314-1.011-0.541c-0.276-0.229-0.491-0.501-0.643-0.818C45.497,64.464,45.419,64.119,45.419,63.752z
			 M48.802,64.763c0.443,0,0.846-0.067,1.215-0.2c0.368-0.136,0.684-0.323,0.946-0.561c0.263-0.241,0.466-0.523,0.606-0.856
			c0.141-0.33,0.209-0.698,0.209-1.103v-0.46l-2.166,0.349c-0.772,0.123-1.386,0.321-1.839,0.59c-0.454,0.269-0.68,0.618-0.68,1.047
			c0,0.135,0.03,0.27,0.092,0.404c0.061,0.135,0.158,0.264,0.293,0.386c0.137,0.123,0.311,0.22,0.524,0.295
			C48.218,64.728,48.484,64.763,48.802,64.763z"/>
		<path fill="#00111B" d="M56.891,65.665c0,0.135-0.049,0.25-0.146,0.348c-0.101,0.099-0.215,0.147-0.351,0.147h-0.679
			c-0.135,0-0.252-0.049-0.351-0.147c-0.098-0.098-0.147-0.213-0.147-0.348V53.606c0-0.136,0.05-0.252,0.147-0.351
			c0.099-0.098,0.216-0.146,0.351-0.146h0.679c0.136,0,0.25,0.048,0.351,0.146c0.098,0.099,0.146,0.215,0.146,0.351V65.665z"/>
		<path fill="#00111B" d="M60.402,65.665c0,0.135-0.05,0.25-0.147,0.348c-0.098,0.099-0.215,0.147-0.351,0.147h-0.681
			c-0.135,0-0.251-0.049-0.349-0.147c-0.098-0.098-0.146-0.213-0.146-0.348V53.606c0-0.136,0.048-0.252,0.146-0.351
			c0.098-0.098,0.214-0.146,0.349-0.146h0.681c0.136,0,0.253,0.048,0.351,0.146c0.098,0.099,0.147,0.215,0.147,0.351V65.665z"/>
		<path fill="#00111B" d="M61.798,60.462c0.048-0.563,0.184-1.091,0.404-1.581c0.222-0.49,0.51-0.918,0.864-1.286
			c0.355-0.369,0.779-0.654,1.278-0.864c0.496-0.208,1.051-0.312,1.663-0.312c0.661,0,1.252,0.107,1.773,0.322
			c0.52,0.215,0.965,0.524,1.332,0.929c0.369,0.403,0.648,0.894,0.846,1.47c0.194,0.577,0.293,1.218,0.293,1.931v0.495
			c0,0.136-0.048,0.25-0.146,0.35c-0.099,0.099-0.216,0.146-0.351,0.146h-6.321v0.11c0.022,0.833,0.276,1.476,0.762,1.923
			c0.484,0.446,1.087,0.67,1.812,0.67c0.673,0,1.178-0.095,1.517-0.285c0.334-0.188,0.609-0.4,0.816-0.636
			c0.1-0.098,0.188-0.163,0.258-0.2c0.073-0.036,0.185-0.057,0.332-0.057h0.553c0.135,0,0.256,0.052,0.368,0.149
			c0.109,0.098,0.152,0.214,0.128,0.349c-0.037,0.22-0.142,0.461-0.313,0.728c-0.171,0.264-0.42,0.507-0.744,0.733
			c-0.324,0.229-0.729,0.417-1.213,0.568c-0.484,0.155-1.051,0.232-1.7,0.232c-0.612,0-1.166-0.109-1.654-0.323
			c-0.49-0.214-0.916-0.508-1.278-0.881c-0.362-0.375-0.651-0.816-0.873-1.326c-0.221-0.507-0.356-1.061-0.404-1.66
			C61.737,61.59,61.737,61.026,61.798,60.462z M63.435,60.517h5.164v-0.055c0-0.746-0.236-1.346-0.709-1.793
			c-0.471-0.446-1.099-0.671-1.883-0.671c-0.355,0-0.687,0.058-0.994,0.175c-0.306,0.116-0.575,0.282-0.809,0.496
			c-0.234,0.216-0.416,0.474-0.552,0.782c-0.135,0.306-0.209,0.644-0.221,1.01v0.056H63.435z"/>
		<path fill="#00111B" d="M74.059,62.942c0,0.234,0.021,0.451,0.063,0.653c0.043,0.202,0.12,0.377,0.23,0.523
			s0.266,0.261,0.467,0.339c0.203,0.08,0.464,0.119,0.784,0.119h0.971c0.136,0,0.253,0.051,0.352,0.149
			c0.098,0.097,0.147,0.214,0.147,0.349v0.588c0,0.135-0.05,0.251-0.147,0.349c-0.099,0.098-0.216,0.148-0.352,0.148h-1.157
			c-1.065,0-1.837-0.276-2.315-0.826c-0.478-0.552-0.717-1.35-0.717-2.392v-4.76h-1.36c-0.136,0-0.251-0.05-0.351-0.147
			c-0.098-0.099-0.145-0.213-0.145-0.349v-0.589c0-0.135,0.047-0.25,0.145-0.349c0.1-0.099,0.215-0.149,0.351-0.149h1.36v-2.994
			c0-0.136,0.049-0.251,0.146-0.35s0.216-0.147,0.35-0.147h0.68c0.136,0,0.251,0.049,0.35,0.147c0.098,0.099,0.148,0.214,0.148,0.35
			V56.6h2.332c0.136,0,0.251,0.051,0.351,0.149c0.098,0.099,0.146,0.214,0.146,0.349v0.589c0,0.136-0.049,0.25-0.146,0.349
			c-0.1,0.098-0.215,0.147-0.351,0.147h-2.332V62.942z"/>
	</g>
	<path fill="#00111B" d="M18.877,55.714H8.867c-0.312,0-0.569-0.254-0.569-0.567v-0.312c0-0.313,0.256-0.568,0.569-0.568h10.01
		c0.313,0,0.569,0.255,0.569,0.568v0.312C19.446,55.46,19.189,55.714,18.877,55.714"/>
	<path fill="#00111B" d="M21.585,58.612h-10.01c-0.313,0-0.568-0.255-0.568-0.566v-0.312c0-0.313,0.256-0.569,0.568-0.569h10.01
		c0.312,0,0.569,0.256,0.569,0.569v0.312C22.154,58.357,21.897,58.612,21.585,58.612"/>
	<path fill="#00111B" d="M18.877,61.513H8.867c-0.312,0-0.569-0.258-0.569-0.57v-0.311c0-0.315,0.256-0.568,0.569-0.568h10.01
		c0.313,0,0.569,0.253,0.569,0.568v0.311C19.446,61.255,19.189,61.513,18.877,61.513"/>
</g>
</svg>
